<svg xmlns="http://www.w3.org/2000/svg" xmlns:xlink="http://www.w3.org/1999/xlink" width="350" height="150.69" viewBox="0 0 350 150.69">
  <defs>
    <clipPath id="clip-path">
      <path d="M246.18,11.75v25h-5v-25Zm90.06,0v5h-10v20h-5v-20h-10v-5Zm-30,0v25h-5v-20h-15v20h-5v-25Zm-30,0v5H256.15v5h10v5h-10v5H276.2v5H251.14v-25Zm-40,0v5h-20v15h20v5H211.14v-25Zm-30,0v5H186.13v5h20.05v15H181.12v-5h20v-5h-20v-15ZM336.26,50.27v8.18H319.9V91.17h-8.18V58.45H295.36V50.27Zm-49,0v8.18H254.54v8.18h32.72V91.17h-40.9V83h32.72V74.81H246.36V50.27Zm-49,0v8.18H205.54v8.18h32.72V91.17H197.37V83h32.71V74.81H197.37V50.27Zm-49,0v40.9h-8.17V50.27Z" fill="#00aba1" clip-rule="evenodd"/>
    </clipPath>
  </defs>
  <g id="Layer_2" data-name="Layer 2">
    <g id="Layer_1-2" data-name="Layer 1">
      <g>
        <g>
          <path d="M181.09,107.05h16.2v15.89h-3.24V110.23h-9.72v12.71h-3.24Z" fill="#484848"/>
          <path d="M200.51,107.05h16.2v15.89h-16.2Zm13,12.71v-9.53h-9.72v9.53Z" fill="#484848"/>
          <path d="M219.93,107.05h16.2v3.18h-6.48v12.71h-3.24V110.23h-6.48Z" fill="#484848"/>
          <path d="M239.35,107.05h16.2v3.18h-13v3.18h6.48v3.17h-6.48v3.18h13v3.18h-16.2Z" fill="#484848"/>
          <path d="M258.77,107.05H275v15.89h-16.2Zm13,6.36v-3.18H262v3.18Zm0,6.35v-3.18H262v3.18Z" fill="#484848"/>
          <path d="M278.19,107.05h16.2v15.89h-16.2Zm13,12.71v-9.53h-9.72v9.53Z" fill="#484848"/>
          <path d="M297.61,107.05h16.2v15.89h-16.2Zm13,12.71v-9.53h-9.72v9.53Z" fill="#484848"/>
          <path d="M317,107.05h3.24v6.36h2.28l6.49-6.36,2.1,2.09-6,5.87,6.05,5.81L329,122.94l-6.49-6.36h-2.28v6.36H317Z" fill="#484848"/>
          <path d="M333.79,119.76h13v-3.18h-13v-9.53H350v3.18H337v3.18h13v9.53H333.79Z" fill="#484848"/>
        </g>
        <path d="M134.1,0H33.18C21.41,0,17.63,7.56,16.63,15.69V14.14H1.39C.38,14.24,0,14.74,0,16,.08,19.33.07,22.68,0,26c0,1.1.34,1.59,1.17,1.72.12,0,11.11,0,15.14,0V41.32c-4,0-14.93,0-15.06,0C.34,41.48,0,42,0,43.18c.08,3.34.07,6.69,0,10C0,54.39.39,54.86,1.31,55c.14,0,12.51,0,15,0,0,4.58,0,9.16,0,13.74-2.76,0-11.58,0-13.83,0H1.55C.42,68.75,0,69.23,0,70.54c.08,3.35.07,6.7,0,10,0,1.09.33,1.58,1.13,1.72a3,3,0,0,0,.7,0c2.46,0,11.53,0,14.47,0V96.4c-4,0-14.8,0-14.91,0C.38,96.5,0,97,0,98.25c.08,3.34.07,6.69,0,10,0,1.1.34,1.59,1.17,1.73.12,0,11.09,0,15.13,0v13.54l-15,0c-.91.14-1.28.65-1.25,1.83.08,3.35.07,6.7,0,10,0,1.17.39,1.65,1.31,1.75H18.16a20.31,20.31,0,0,0,12.17,12.1c4.12,1.59,8.52,1.19,12.77,1.21,30.62.14,48.69.11,79.31.14V139.3c-14.53,0-16.53,0-31.07,0v-.06H38.72a11.72,11.72,0,0,1-7.07-2.06c4.43,0,9.26,0,9.34,0,.91-.13,1.28-.64,1.25-1.82q-.1-5,0-10c0-1.17-.38-1.65-1.31-1.75-.11,0-8.91,0-13.18,0q0-6.86,0-13.73H40.69c1.13-.06,1.58-.55,1.55-1.86q-.1-5,0-10c0-1.09-.33-1.57-1.12-1.72a4.9,4.9,0,0,0-.7,0c-2.07,0-8.79,0-12.64,0V91.4q0-4.65,0-9.3h13.1c1-.09,1.42-.59,1.39-1.84q-.1-5,0-10c0-1.11-.34-1.59-1.16-1.73-.11,0-8.66,0-13.45,0-.05-3.64-.08-8.4-.09-13.54,4.77,0,13.34,0,13.45,0,.91-.13,1.28-.64,1.25-1.82q-.1-5,0-10.05c0-1.17-.38-1.64-1.31-1.74-.11,0-9.18,0-13.37,0,0-5.08.07-9.88.13-13.73h13c1.13-.06,1.58-.55,1.55-1.86q-.1-5,0-10c0-1.09-.33-1.57-1.12-1.72a3.78,3.78,0,0,0-.7,0c-1.64,0-6.19,0-9.93,0a9.1,9.1,0,0,1,7-2.83c8.21,0,16.42-.18,24.63.18,8,.34,16,.12,24.06.12,16.26,0,20,0,36.25,0h7.35c7,0,11.26,4.12,11.32,11.25s0,14.34,0,21.52l0,47.25h11.35V20.35C151.79,17,154.29,1,134.1,0Z" fill="#00aba1"/>
        <g>
          <path d="M246.18,11.75v25h-5v-25Zm90.06,0v5h-10v20h-5v-20h-10v-5Zm-30,0v25h-5v-20h-15v20h-5v-25Zm-30,0v5H256.15v5h10v5h-10v5H276.2v5H251.14v-25Zm-40,0v5h-20v15h20v5H211.14v-25Zm-30,0v5H186.13v5h20.05v15H181.12v-5h20v-5h-20v-15ZM336.26,50.27v8.18H319.9V91.17h-8.18V58.45H295.36V50.27Zm-49,0v8.18H254.54v8.18h32.72V91.17h-40.9V83h32.72V74.81H246.36V50.27Zm-49,0v8.18H205.54v8.18h32.72V91.17H197.37V83h32.71V74.81H197.37V50.27Zm-49,0v40.9h-8.17V50.27Z" fill="#00aba1" fill-rule="evenodd"/>
          <g clip-path="url(#clip-path)">
            <rect x="179.1" y="9.76" width="159.14" height="83.39" fill="#00aba1"/>
          </g>
        </g>
      </g>
    </g>
  </g>
</svg>
